<?xml version="1.0" standalone="no"?>
<!DOCTYPE svg PUBLIC "-//W3C//DTD SVG 20010904//EN"
 "http://www.w3.org/TR/2001/REC-SVG-20010904/DTD/svg10.dtd">
<svg version="1.0" xmlns="http://www.w3.org/2000/svg"
 width="206.000000pt" height="213.000000pt" viewBox="0 0 206.000000 213.000000"
 preserveAspectRatio="xMidYMid meet">

<g transform="translate(0.000000,213.000000) scale(0.100000,-0.100000)"
fill="#000000" stroke="none">
<path d="M1110 1809 c-47 -4 -169 -11 -272 -15 -104 -4 -188 -11 -188 -15 0
-5 11 -9 25 -9 35 0 71 -38 87 -91 19 -65 19 -1094 -1 -1161 -16 -56 -42 -87
-82 -95 -16 -3 -26 -9 -24 -14 8 -11 353 -10 360 1 3 6 -3 10 -14 10 -35 0
-78 46 -91 97 -6 27 -14 149 -17 272 l-6 223 24 -7 c287 -93 510 -65 656 81
87 87 131 234 112 370 -27 194 -171 328 -379 354 -46 5 -89 9 -95 8 -5 -1 -48
-5 -95 -9z m141 -23 c82 -18 130 -42 189 -94 169 -149 166 -463 -6 -622 -25
-23 -67 -51 -92 -63 -87 -39 -306 -33 -425 12 l-27 11 2 361 3 361 42 14 c96
33 217 40 314 20z"/>
</g>
</svg>
