<?xml version="1.0" standalone="no"?>
<!DOCTYPE svg PUBLIC "-//W3C//DTD SVG 20010904//EN"
 "http://www.w3.org/TR/2001/REC-SVG-20010904/DTD/svg10.dtd">
<svg version="1.0" xmlns="http://www.w3.org/2000/svg"
 width="965.000000pt" height="404.000000pt" viewBox="0 0 965.000000 404.000000"
 preserveAspectRatio="xMidYMid meet">

<g transform="translate(0.000000,404.000000) scale(0.100000,-0.100000)"
fill="#000000" stroke="none">
<path d="M1110 3079 c-47 -4 -169 -11 -272 -15 -104 -4 -188 -11 -188 -15 0
-5 11 -9 25 -9 35 0 71 -38 87 -91 19 -65 19 -1094 -1 -1162 -15 -51 -58 -97
-92 -97 -11 0 -18 -4 -14 -9 7 -13 352 -13 360 -1 3 6 -3 10 -14 10 -35 0 -78
46 -91 97 -6 27 -14 149 -17 272 l-6 223 24 -7 c287 -93 510 -65 656 81 87 87
131 234 112 370 -27 194 -171 328 -379 354 -46 5 -89 9 -95 8 -5 -1 -48 -5
-95 -9z m141 -23 c82 -18 130 -42 189 -94 169 -149 166 -463 -6 -622 -25 -23
-67 -51 -92 -63 -87 -39 -306 -33 -425 12 l-27 11 2 361 3 361 42 14 c96 33
217 40 314 20z"/>
<path d="M3894 3053 c4 -4 21 -12 38 -18 46 -15 68 -52 79 -134 16 -112 7
-1086 -10 -1131 -16 -42 -58 -80 -89 -80 -13 0 -21 -4 -18 -9 8 -13 363 -14
371 -1 4 6 -4 10 -17 10 -34 0 -68 27 -87 69 -14 32 -16 107 -19 669 l-3 632
-126 0 c-70 0 -123 -3 -119 -7z"/>
<path d="M4971 2916 c-55 -30 -65 -90 -22 -138 22 -25 37 -32 64 -32 92 0 126
120 48 167 -34 20 -58 21 -90 3z"/>
<path d="M2681 2664 c-136 -36 -247 -139 -303 -278 -31 -78 -33 -86 -33 -221
0 -135 1 -143 34 -223 74 -184 232 -292 431 -292 138 0 241 41 330 130 241
240 178 710 -114 853 -98 48 -236 60 -345 31z m265 -31 c136 -63 224 -247 224
-469 0 -229 -86 -406 -230 -472 -75 -35 -182 -35 -255 -1 -104 49 -181 158
-211 297 -18 86 -18 268 0 353 16 76 62 173 105 222 36 41 122 89 176 98 60
10 134 -1 191 -28z"/>
<path d="M6110 2669 c-41 -4 -136 -10 -210 -13 -74 -3 -137 -5 -140 -6 -3 0
12 -7 33 -15 84 -30 92 -69 92 -475 0 -343 -6 -395 -47 -440 -11 -11 -33 -23
-49 -27 -67 -13 -18 -20 147 -21 97 -1 181 1 187 5 5 3 -5 11 -23 17 -40 13
-68 49 -80 102 -5 21 -10 218 -10 436 l0 397 76 16 c102 23 243 17 299 -12 51
-27 98 -77 121 -128 16 -35 19 -77 22 -343 4 -340 -3 -398 -48 -444 -16 -15
-38 -28 -50 -28 -12 0 -19 -4 -15 -9 7 -12 353 -13 360 -1 2 4 -9 10 -25 13
-38 8 -66 37 -80 84 -8 24 -15 163 -19 368 -6 319 -7 332 -29 377 -67 136
-217 179 -512 147z"/>
<path d="M7690 2670 c-142 -30 -230 -105 -230 -196 0 -38 27 -82 61 -99 40
-21 96 -5 110 32 5 14 8 27 7 28 -2 1 -13 7 -25 14 -30 15 -38 61 -18 106 26
64 91 100 200 110 161 16 285 -53 285 -158 0 -62 -60 -102 -218 -143 -135 -35
-249 -73 -291 -97 -146 -83 -212 -221 -181 -373 22 -105 68 -167 160 -215 63
-34 212 -35 282 -2 92 42 157 129 206 276 l30 87 4 -122 c6 -186 41 -239 158
-243 33 -2 63 1 66 6 3 5 -2 9 -10 9 -9 0 -30 13 -48 29 l-33 29 -6 244 c-7
277 -14 309 -76 335 -42 17 -78 9 -67 -15 15 -34 15 -135 0 -225 -29 -170 -91
-286 -186 -347 -106 -68 -208 -61 -290 18 -58 56 -75 105 -73 212 3 210 121
323 404 389 179 41 202 48 240 74 96 64 39 168 -120 218 -75 24 -266 34 -341
19z"/>
<path d="M4840 2652 c0 -6 13 -13 29 -17 34 -7 52 -27 72 -75 20 -49 21 -736
1 -792 -16 -44 -55 -78 -89 -78 -13 0 -22 -4 -19 -9 8 -13 364 -13 371 -1 4 6
-3 10 -15 10 -34 0 -67 28 -86 73 -17 38 -19 84 -22 465 l-4 422 -96 0 c-53 0
-107 3 -119 6 -13 4 -23 2 -23 -4z"/>
<path d="M6482 1393 c-66 -31 -92 -70 -92 -136 0 -27 4 -46 9 -43 4 3 8 24 8
47 0 25 8 51 20 67 21 28 80 68 89 60 2 -3 -7 -63 -22 -134 -81 -398 -98 -514
-75 -514 14 0 23 33 11 40 -6 4 0 55 18 149 l27 144 65 39 c36 22 74 48 86 59
25 24 62 14 88 -23 20 -28 21 -107 3 -151 -32 -76 -117 -139 -206 -153 -23 -4
-41 -11 -41 -16 0 -14 64 -1 120 23 60 27 107 73 136 134 41 85 29 159 -32
200 l-30 21 23 43 c37 71 28 117 -28 147 -53 27 -117 26 -177 -3z m164 -9 c38
-18 49 -42 40 -87 -10 -52 -39 -79 -102 -97 -33 -10 -66 -20 -75 -24 -15 -7
-15 -2 -4 51 8 32 19 84 25 116 11 56 12 57 47 57 19 0 50 -7 69 -16z m-76
-233 c-51 -37 -90 -56 -90 -44 0 31 77 82 125 83 14 0 3 -12 -35 -39z"/>
<path d="M7611 1379 c-27 -29 -93 -158 -121 -236 -13 -35 -24 -63 -26 -63 -1
0 0 42 3 93 4 73 2 96 -10 112 -15 20 -16 20 -43 -5 -32 -29 -97 -162 -150
-307 -21 -57 -39 -101 -41 -99 -2 2 5 41 16 87 67 281 82 353 79 382 -10 103
-159 -39 -183 -175 -6 -31 -3 -41 19 -62 15 -16 36 -26 53 -25 28 1 28 1 -7
16 -19 8 -38 20 -42 27 -24 37 17 141 81 205 76 76 79 56 31 -161 -78 -347
-90 -406 -90 -432 0 -50 17 -25 44 67 67 224 182 477 218 477 13 0 9 -157 -7
-255 -12 -79 -13 -108 -1 -94 2 2 20 54 40 116 53 160 140 333 167 333 16 0 9
-111 -16 -255 -51 -287 -56 -328 -46 -338 8 -8 15 -7 23 1 9 9 9 12 -1 12 -16
0 -14 11 35 293 37 211 41 300 12 305 -9 2 -25 -7 -37 -19z"/>
<path d="M8111 1361 c-11 -21 -32 -88 -47 -147 -25 -101 -31 -114 -82 -174
-30 -36 -59 -65 -64 -65 -17 0 -56 84 -51 106 3 12 20 27 37 35 31 13 31 13 5
14 -30 0 -43 -13 -79 -79 -34 -62 -61 -63 -74 -2 l-9 43 -34 -38 c-30 -34 -33
-36 -27 -14 11 46 33 72 55 65 23 -8 26 10 2 19 -26 10 -64 -34 -70 -82 -7
-51 14 -58 43 -15 l17 27 12 -34 c16 -48 42 -51 77 -9 15 18 29 31 31 28 16
-19 47 -79 47 -89 0 -6 -9 -25 -20 -40 -11 -16 -23 -43 -27 -60 -5 -27 -3 -31
12 -29 26 6 54 49 59 92 3 27 18 54 51 93 26 30 48 54 49 54 2 0 -5 -36 -16
-81 -11 -45 -16 -84 -12 -88 4 -3 9 0 11 7 3 7 19 41 36 74 34 67 57 85 57 46
0 -23 16 -48 31 -48 4 0 21 12 38 26 17 14 31 21 31 15 0 -19 28 -12 48 13
l19 24 12 -34 c8 -21 19 -34 30 -34 19 0 51 31 71 68 21 41 5 33 -29 -14 -26
-38 -34 -44 -46 -34 -8 7 -15 27 -15 46 0 46 -14 49 -41 9 -30 -44 -41 -45
-27 -2 16 48 28 59 57 52 25 -6 25 -6 8 12 -23 23 -41 12 -89 -57 -51 -73 -78
-89 -78 -46 0 27 -24 51 -40 41 -7 -4 -20 -21 -31 -39 -24 -39 -24 -34 2 76
12 49 39 127 60 173 38 80 50 135 29 135 -5 0 -19 -18 -29 -39z m0 -58 c-12
-20 -14 -14 -5 12 4 9 9 14 11 11 3 -2 0 -13 -6 -23z m-217 -435 c-10 -18 -19
-27 -22 -20 -4 14 26 67 35 59 2 -3 -3 -20 -13 -39z"/>
<path d="M6806 1104 c-23 -59 11 -107 46 -65 17 22 18 23 18 3 0 -33 -16 -67
-56 -119 -73 -94 -118 -236 -95 -295 32 -84 94 30 140 258 l18 89 61 49 c34
28 60 51 58 54 -6 5 -56 -27 -89 -57 l-28 -25 7 57 c4 31 4 57 2 57 -3 0 -18
-18 -33 -40 -32 -46 -47 -39 -38 17 6 34 0 44 -11 17z m24 -271 c-26 -115 -66
-213 -88 -213 -22 0 -11 112 17 176 24 53 83 145 90 139 2 -2 -6 -48 -19 -102z"/>
</g>
</svg>
